<svg xmlns="http://www.w3.org/2000/svg" width="59" height="90" fill="none"><g clip-path="url('#clip0_1_207')"><path fill="#0ACF83" d="M15.051 89.66c8.039 0 14.559-6.64 14.559-14.825V60.009H15.051C7.013 60.01.493 66.65.493 74.835S7.013 89.66 15.05 89.66"/><path fill="#A259FF" d="M.493 45.165c0-8.186 6.52-14.825 14.558-14.825H29.61v29.67H15.051C7.013 59.99.493 53.35.493 45.164"/><path fill="#F24E1E" d="M.493 15.496C.493 7.31 7.013.67 15.05.67H29.61v29.67H15.051C7.013 30.34.493 23.682.493 15.496"/><path fill="#FF7262" d="M29.628.67h14.559c8.038 0 14.558 6.64 14.558 14.826S52.225 30.32 44.187 30.32h-14.56z"/><path fill="#1ABCFE" d="M58.745 45.165c0 8.186-6.52 14.826-14.558 14.826-8.04 0-14.56-6.64-14.56-14.826s6.52-14.825 14.56-14.825c8.038 0 14.558 6.64 14.558 14.825"/></g><defs><clipPath id="clip0_1_207"><path fill="#fff" d="M.493.67h58.252v88.99H.493z"/></clipPath></defs></svg>